<mxfile host="65bd71144e">
    <diagram id="HIP3nbAZw_EuaXWnEj3U" name="Page-1">
        <mxGraphModel dx="1086" dy="743" grid="1" gridSize="10" guides="1" tooltips="1" connect="1" arrows="1" fold="1" page="1" pageScale="1" pageWidth="850" pageHeight="1100" math="0" shadow="0">
            <root>
                <mxCell id="0"/>
                <mxCell id="1" parent="0"/>
                <UserObject label="" id="7">
                    <mxCell style="swimlane;whiteSpace=wrap;html=1;" parent="1" vertex="1">
                        <mxGeometry x="45" y="100" width="760" height="480" as="geometry"/>
                    </mxCell>
                </UserObject>
                <mxCell id="8" value="&lt;font size=&quot;3&quot;&gt;Cookie Clicker&lt;/font&gt;" style="rounded=1;whiteSpace=wrap;html=1;" vertex="1" parent="7">
                    <mxGeometry x="220" y="60" width="300" height="60" as="geometry"/>
                </mxCell>
                <mxCell id="10" value="&lt;font style=&quot;font-size: 14px;&quot;&gt;Cookies:7&lt;/font&gt;" style="text;html=1;align=center;verticalAlign=middle;resizable=0;points=[];autosize=1;strokeColor=none;fillColor=none;fontSize=9;" vertex="1" parent="7">
                    <mxGeometry x="325" y="130" width="90" height="30" as="geometry"/>
                </mxCell>
                <mxCell id="12" value="" style="ellipse;whiteSpace=wrap;html=1;aspect=fixed;fontSize=14;" vertex="1" parent="7">
                    <mxGeometry x="302.5" y="180" width="135" height="135" as="geometry"/>
                </mxCell>
                <mxCell id="13" value="RESET COOKIES" style="rounded=1;whiteSpace=wrap;html=1;fontSize=14;" vertex="1" parent="7">
                    <mxGeometry x="317.5" y="360" width="120" height="60" as="geometry"/>
                </mxCell>
            </root>
        </mxGraphModel>
    </diagram>
</mxfile>